<?xml version="1.0" encoding="UTF-8" standalone="no"?>
<svg
   xmlns:dc="http://purl.org/dc/elements/1.1/"
   xmlns:cc="http://creativecommons.org/ns#"
   xmlns:rdf="http://www.w3.org/1999/02/22-rdf-syntax-ns#"
   xmlns:svg="http://www.w3.org/2000/svg"
   xmlns="http://www.w3.org/2000/svg"
   xmlns:sodipodi="http://sodipodi.sourceforge.net/DTD/sodipodi-0.dtd"
   xmlns:inkscape="http://www.inkscape.org/namespaces/inkscape"
   sodipodi:docname="gitHub_Icon.svg"
   inkscape:version="1.0.1 (3bc2e813f5, 2020-09-07)"
   id="svg8"
   version="1.1"
   viewBox="0 0 71 71"
   height="71mm"
   width="71mm">
  <defs
     id="defs2" />
  <sodipodi:namedview
     inkscape:window-maximized="1"
     inkscape:window-y="27"
     inkscape:window-x="0"
     inkscape:window-height="704"
     inkscape:window-width="1366"
     showgrid="false"
     inkscape:document-rotation="0"
     inkscape:current-layer="g923"
     inkscape:document-units="mm"
     inkscape:cy="130.68166"
     inkscape:cx="123.45609"
     inkscape:zoom="1.9415199"
     inkscape:pageshadow="2"
     inkscape:pageopacity="0"
     borderopacity="1.0"
     bordercolor="#666666"
     pagecolor="#414141"
     id="base">
    <inkscape:grid
       type="xygrid"
       id="grid23" />
  </sodipodi:namedview>
  <metadata
     id="metadata5">
    <rdf:RDF>
      <cc:Work
         rdf:about="">
        <dc:format>image/svg+xml</dc:format>
        <dc:type
           rdf:resource="http://purl.org/dc/dcmitype/StillImage" />
        <dc:title />
      </cc:Work>
    </rdf:RDF>
  </metadata>
  <g
     id="layer1"
     inkscape:groupmode="layer"
     inkscape:label="Layer 1">
    <g
       id="g923"
       transform="translate(-19.361486,-98.267321)">
      <g
         id="g873"
         transform="matrix(0.59363756,0,0,0.59611394,-7.0664065,56.849818)">
        <ellipse
           style="opacity:1;fill:#000000;stroke:#000000;stroke-width:0"
           id="path21"
           cx="104.68649"
           cy="129.21184"
           rx="55.589474"
           ry="55.35051" />
        <path
           style="fill:#ffffff;stroke:#ffffff;stroke-width:0;stroke-linecap:butt;stroke-linejoin:miter;stroke-miterlimit:4;stroke-dasharray:none;stroke-opacity:1"
           d="m 122.23316,181.73375 c -10.57739,5.38699 -24.232213,3.9231 -34.830674,0.0951 1.623566,0.13008 3.376867,-0.59964 3.469296,-2.82779 V 168.6381 c -6.790359,1.08571 -13.203593,1.00716 -17.773403,-4.76237 -2.481525,-3.57501 -2.690399,-8.0099 -7.966245,-10.52766 -0.701506,-0.35226 -1.298074,-0.78434 -1.329735,-1.64603 0.401638,-1.15903 1.812391,-0.97737 3.372462,-0.92502 2.813945,0.44067 5.996635,2.45968 7.691691,5.76816 2.249809,3.97662 8.340959,7.83247 16.199149,4.39754 0.603657,-4.50848 2.07436,-5.69973 3.430902,-7.32774 -10.220696,-1.24452 -18.817416,-4.50461 -22.722046,-13.58823 -3.64607,-9.61398 -4.385113,-20.06569 3.242199,-28.69338 -1.47961,-3.06183 -1.77057,-9.96951 0.640024,-14.550033 5.460244,-0.179864 10.324671,2.537603 15.072326,5.822903 10.080454,-2.836638 19.444014,-2.21431 28.014494,0.0619 4.6051,-3.169182 9.28866,-6.103464 15.01322,-5.921295 2.27458,4.624485 2.43415,10.324295 0.72587,14.712425 8.50548,8.17426 6.03974,23.33416 2.6631,29.81537 -4.19916,7.73404 -12.06789,11.29553 -22.31653,12.15089 4.60254,4.71216 3.6401,9.26427 3.87788,14.01972 l 0.0941,11.93771 c 0.0807,1.42748 0.74052,2.50429 3.43193,2.35078 z"
           id="path25"
           sodipodi:nodetypes="cccccccccccccccccccccccc" />
        <ellipse
           style="fill:#000000;stroke:#000000;stroke-width:0"
           id="path27"
           cx="59.097462"
           cy="176.11903"
           rx="1.1780456"
           ry="0.85004133"
           transform="matrix(0.98612886,-0.16598151,0.17666851,0.98427041,0,0)" />
        <ellipse
           style="fill:#000000;stroke:#000000;stroke-width:0"
           id="ellipse29"
           cx="84.365105"
           cy="163.65387"
           rx="1.1780456"
           ry="0.85004133"
           transform="matrix(0.99998319,0.00579904,0.00504834,0.99998726,0,0)" />
        <ellipse
           style="fill:#000000;stroke:#000000;stroke-width:0"
           id="ellipse31"
           cx="113.20509"
           cy="141.61383"
           rx="1.1780456"
           ry="0.85004133"
           transform="matrix(0.9753045,0.22086453,-0.2102722,0.97764288,0,0)" />
        <ellipse
           style="fill:#000000;stroke:#000000;stroke-width:0"
           id="ellipse33"
           cx="159.6916"
           cy="77.940331"
           rx="1.1092315"
           ry="0.80038714"
           transform="matrix(0.78103503,0.62448722,-0.61597843,0.78776302,0,0)" />
        <ellipse
           style="fill:#000000;stroke:#000000;stroke-width:0"
           id="ellipse35"
           cx="170.79042"
           cy="34.027336"
           rx="1.1092315"
           ry="0.80038714"
           transform="matrix(0.59277638,0.8053671,-0.79888975,0.60147749,0,0)" />
        <ellipse
           style="fill:#000000;stroke:#000000;stroke-width:0"
           id="ellipse37"
           cx="167.07645"
           cy="34.125286"
           rx="0.98563409"
           ry="0.7112031"
           transform="matrix(0.59277638,0.8053671,-0.79888975,0.60147749,0,0)" />
        <ellipse
           style="fill:#000000;stroke:#000000;stroke-width:0"
           id="ellipse39"
           cx="124.1479"
           cy="111.90609"
           rx="0.89188635"
           ry="0.64355767"
           transform="matrix(0.91466864,0.40420451,-0.39425912,0.91899932,0,0)" />
      </g>
    </g>
  </g>
</svg>
